<?xml version="1.0" encoding="UTF-8"?>
<svg version="1.1" viewBox="0 0 275.55 97.23" xmlns="http://www.w3.org/2000/svg">
 <defs>
  <style>.cls-1 {
        fill: #aebbe2;
      }

      .cls-2 {
        fill: none;
      }

      .cls-3 {
        clip-path: url(#clippath-1);
      }

      .cls-4 {
        fill: #ee446f;
      }

      .cls-5 {
        clip-path: url(#clippath-2);
      }

      .cls-6 {
        clip-path: url(#clippath);
      }</style>
  <clipPath id="clippath">
   <path class="cls-2" d="M206.06,30.77c3.27,2.62,7.41,4.2,11.92,4.2,10.53,0,19.07-8.54,19.07-19.07,0-4.42-1.52-8.48-4.05-11.72-4.58.8-9.07,2.58-13.15,5.39-7.51,5.18-12.22,12.89-13.8,21.2Z"/>
  </clipPath>
  <clipPath id="clippath-1">
   <path class="cls-2" d="m269.95 25.18-14.47 17.18c-3.32 3.94-9.19 4.44-13.13 1.12s-4.44-9.19-1.12-13.13l15.14-17.98c0.7-0.84 1.53-1.51 2.42-2.03 2.8 2.1 5.32 4.68 7.43 7.72 1.56 2.26 2.8 4.65 3.73 7.11z"/>
  </clipPath>
  <clipPath id="clippath-2">
   <path class="cls-2" d="M206.39,44.77c.93,3.89,2.57,7.67,4.98,11.16,9.08,13.16,25.93,17.75,40.13,11.88-.01-.41-.02-.82-.07-1.23-.74-6.66-6.14-12.03-12.81-12.73-.07,0-.14-.01-.21-.02-5.66-.52-10.92-2.92-15.01-6.86-2.56-2.47-6.03-4-9.85-4.04-2.58-.03-5.02.66-7.16,1.86Z"/>
  </clipPath>
 </defs>
 <path d="m35.61 14.03c-1.62-2.32-4.26-3.83-7.88-3.83s-8.15 2.27-8.15 7.18 4.05 6.1 8.31 7.5c5.4 1.78 11.34 3.51 11.34 11.18s-6.42 11.01-12.47 11.01c-4.64 0-9.29-1.89-12.04-5.67l3.35-2.48c1.67 2.7 4.75 4.8 8.75 4.8s8.48-2.48 8.48-7.4c0-5.34-4.48-6.69-9.34-8.21-5.08-1.57-10.26-3.78-10.26-10.69 0-7.4 6.59-10.53 12.2-10.53 5.13 0 8.96 2.16 10.8 4.64l-3.08 2.48z"/>
 <path d="M83.71,46.1h-21.86c-11.07,0-19.33-8.26-19.33-19.6S50.78,6.9,61.85,6.9s19.27,8.26,19.27,19.6c0,6.69-3.02,12.63-8.96,16.03v.11h11.55v3.46ZM61.85,42.7c9.39,0,15.28-7.61,15.28-16.2s-5.88-16.2-15.28-16.2-15.22,7.61-15.22,16.2,5.72,16.2,15.22,16.2Z"/>
 <path class="cls-4" d="m86.84 46.1h-4.26l16.51-38.22h3.78l16.41 38.22h-4.32l-4.21-10.04h-19.76l-4.16 10.04zm5.61-13.61h16.84l-8.42-20.3-8.42 20.3z"/>
 <path class="cls-4" d="M149.03,40.43h.11V7.88h3.89v38.22h-4.86l-22.24-32.88h-.11v32.88h-3.89V7.88h4.86l22.24,32.55Z"/>
 <path class="cls-4" d="M172.45,46.1h-3.89V11.33h-12.79v-3.46h29.48v3.46h-12.79v34.77Z"/>
 <path class="cls-4" d="M191.88,46.1h-3.89V7.88h3.89v38.22Z"/>
 <path class="cls-1" d="M16.38,68.39c-.97-1.88-3.04-3.19-5.56-3.19-2.37,0-4.78,1.01-4.78,3.53,0,2.13,1.69,3.09,5.41,3.86,5.31,1.11,7.83,3.09,7.83,6.62,0,5.17-4.35,7-8.5,7-3.43,0-6.86-1.35-8.94-4.4l2.61-1.93c1.16,1.98,3.62,3.53,6.28,3.53,2.8,0,5.31-1.01,5.31-3.96,0-2.37-2.37-3.33-6.67-4.35-2.66-.63-6.47-1.79-6.47-6.09,0-4.59,3.96-6.57,8.07-6.57,3.14,0,6.47,1.5,7.92,4.06l-2.51,1.88Z"/>
 <path class="cls-1" d="M24.83,56.65c-1.16,0-2.32-.97-2.32-2.32s1.16-2.32,2.32-2.32,2.32.97,2.32,2.32-1.16,2.32-2.32,2.32ZM26.47,85.63h-3.29v-22.61h3.29v22.61Z"/>
 <path class="cls-1" d="M35.51,63.02c.1,1.21.19,2.9.19,3.86h.1c1.26-2.61,4.54-4.44,7.73-4.44,5.75,0,8.6,3.72,8.6,9.32v13.87h-3.29v-12.51c0-4.73-1.4-7.92-6.13-7.92-3.48,0-6.86,2.8-6.86,8.84v11.59h-3.29v-17.63c0-1.21-.05-3.43-.19-4.98h3.14Z"/>
 <path class="cls-1" d="m59.18 90.17c1.79 2.32 5.22 4.15 8.65 4.15 6.47 0 8.84-4.01 8.84-8.89v-4.25h-0.1c-1.74 2.8-5.27 4.44-8.55 4.44-7.05 0-11.69-4.88-11.69-11.5s4.64-11.69 11.69-11.69c3.29 0 6.76 1.59 8.55 4.49h0.1v-3.91h3.29v22.42c0 4.93-2.27 11.79-12.27 11.79-4.15 0-8.21-1.74-10.87-4.54l2.37-2.51zm9.18-7.34c5.07 0 8.7-3.58 8.7-8.79 0-4.73-3.62-8.84-8.7-8.84-5.46 0-8.55 4.11-8.55 8.84s3.09 8.79 8.55 8.79z"/>
 <path class="cls-1" d="m89.23 85.63h-3.29v-36.52h3.29v36.52z"/>
 <path class="cls-1" d="M115.89,75.2h-18.74c.1,4.54,3.62,8.21,8.26,8.21,3.38,0,5.99-1.88,7.25-3.91l2.46,1.93c-2.66,3.38-5.99,4.78-9.71,4.78-6.71,0-11.69-5.07-11.69-11.88s4.98-11.88,11.4-11.88c7.1,0,10.82,5.02,10.82,11.21,0,.43,0,.97-.05,1.55ZM112.61,72.59c-.19-4.25-2.8-7.39-7.49-7.39-4.4,0-7.63,3.53-7.92,7.39h15.41Z"/>
 <path class="cls-1" d="m129.13 75.29h-10.82v-2.75h10.82v2.75z"/>
 <path class="cls-1" d="m149.42 68.19c-1.06-1.74-3.33-3-5.8-3-5.27 0-8.65 3.96-8.65 9.13s3.33 9.08 8.6 9.08c2.85 0 4.83-1.21 6.13-2.95l2.46 1.84c-1.93 2.37-4.69 3.91-8.6 3.91-7.29 0-12.08-5.07-12.08-11.88s4.78-11.88 12.08-11.88c3.04 0 6.47 1.3 8.41 3.91l-2.56 1.84z"/>
 <path class="cls-1" d="M175.17,75.2h-18.74c.1,4.54,3.62,8.21,8.26,8.21,3.38,0,5.99-1.88,7.25-3.91l2.46,1.93c-2.66,3.38-5.99,4.78-9.71,4.78-6.71,0-11.69-5.07-11.69-11.88s4.98-11.88,11.4-11.88c7.1,0,10.82,5.02,10.82,11.21,0,.43,0,.97-.05,1.55ZM171.88,72.59c-.19-4.25-2.8-7.39-7.49-7.39-4.4,0-7.63,3.53-7.92,7.39h15.41Z"/>
 <path class="cls-1" d="m182.99 85.63h-3.29v-36.52h3.29v36.52z"/>
 <path class="cls-1" d="m192.51 85.63h-3.29v-36.52h3.29v36.52z"/>
 <g class="cls-6" clip-path="url(#clippath)">
  <circle class="cls-1" cx="209.05" cy="3.98" r="1.82"/>
  <circle class="cls-1" cx="215.39" cy="3.98" r="1.82"/>
  <circle class="cls-1" cx="221.73" cy="3.98" r="1.82"/>
  <circle class="cls-1" cx="228.08" cy="3.98" r="1.82"/>
  <circle class="cls-1" cx="234.42" cy="3.98" r="1.82"/>
  <circle class="cls-1" cx="240.76" cy="3.98" r="1.82"/>
  <circle class="cls-1" cx="247.11" cy="3.98" r="1.82"/>
  <circle class="cls-1" cx="253.45" cy="3.98" r="1.82"/>
  <circle class="cls-1" cx="259.8" cy="3.98" r="1.82"/>
  <circle class="cls-1" cx="212.2" cy="9.09" r="1.82"/>
  <circle class="cls-1" cx="218.55" cy="9.09" r="1.82"/>
  <circle class="cls-1" cx="224.89" cy="9.09" r="1.82"/>
  <circle class="cls-1" cx="231.23" cy="9.09" r="1.82"/>
  <circle class="cls-1" cx="237.58" cy="9.09" r="1.82"/>
  <circle class="cls-1" cx="243.92" cy="9.09" r="1.82"/>
  <circle class="cls-1" cx="250.26" cy="9.09" r="1.82"/>
  <circle class="cls-1" cx="256.61" cy="9.09" r="1.82"/>
  <circle class="cls-1" cx="262.95" cy="9.09" r="1.82"/>
  <circle class="cls-1" cx="209.05" cy="14.19" r="1.82"/>
  <circle class="cls-1" cx="215.39" cy="14.19" r="1.82"/>
  <circle class="cls-1" cx="221.73" cy="14.19" r="1.82"/>
  <circle class="cls-1" cx="228.08" cy="14.19" r="1.82"/>
  <circle class="cls-1" cx="234.42" cy="14.19" r="1.82"/>
  <circle class="cls-1" cx="240.76" cy="14.19" r="1.82"/>
  <circle class="cls-1" cx="247.11" cy="14.19" r="1.82"/>
  <circle class="cls-1" cx="253.45" cy="14.19" r="1.82"/>
  <circle class="cls-1" cx="259.8" cy="14.19" r="1.82"/>
  <circle class="cls-1" cx="212.2" cy="19.3" r="1.82"/>
  <circle class="cls-1" cx="218.55" cy="19.3" r="1.82"/>
  <circle class="cls-1" cx="224.89" cy="19.3" r="1.82"/>
  <circle class="cls-1" cx="231.23" cy="19.3" r="1.82"/>
  <circle class="cls-1" cx="237.58" cy="19.3" r="1.82"/>
  <circle class="cls-1" cx="243.92" cy="19.3" r="1.82"/>
  <circle class="cls-1" cx="250.26" cy="19.3" r="1.82"/>
  <circle class="cls-1" cx="256.61" cy="19.3" r="1.82"/>
  <circle class="cls-1" cx="262.95" cy="19.3" r="1.82"/>
  <circle class="cls-1" cx="209.05" cy="24.12" r="1.82"/>
  <circle class="cls-1" cx="215.39" cy="24.12" r="1.82"/>
  <circle class="cls-1" cx="221.73" cy="24.12" r="1.82"/>
  <circle class="cls-1" cx="228.08" cy="24.12" r="1.82"/>
  <circle class="cls-1" cx="234.42" cy="24.12" r="1.82"/>
  <circle class="cls-1" cx="240.76" cy="24.12" r="1.82"/>
  <circle class="cls-1" cx="247.11" cy="24.12" r="1.82"/>
  <circle class="cls-1" cx="253.45" cy="24.12" r="1.82"/>
  <circle class="cls-1" cx="259.8" cy="24.12" r="1.82"/>
  <circle class="cls-1" cx="212.2" cy="29.22" r="1.82"/>
  <circle class="cls-1" cx="218.55" cy="29.22" r="1.82"/>
  <circle class="cls-1" cx="224.89" cy="29.22" r="1.82"/>
  <circle class="cls-1" cx="231.23" cy="29.22" r="1.82"/>
  <circle class="cls-1" cx="237.58" cy="29.22" r="1.82"/>
  <circle class="cls-1" cx="243.92" cy="29.22" r="1.82"/>
  <circle class="cls-1" cx="250.26" cy="29.22" r="1.82"/>
  <circle class="cls-1" cx="256.61" cy="29.22" r="1.82"/>
  <circle class="cls-1" cx="262.95" cy="29.22" r="1.82"/>
  <circle class="cls-1" cx="209.05" cy="34.33" r="1.82"/>
  <circle class="cls-1" cx="215.39" cy="34.33" r="1.82"/>
  <circle class="cls-1" cx="221.73" cy="34.33" r="1.82"/>
  <circle class="cls-1" cx="228.08" cy="34.33" r="1.82"/>
  <circle class="cls-1" cx="234.42" cy="34.33" r="1.82"/>
  <circle class="cls-1" cx="240.76" cy="34.33" r="1.82"/>
  <circle class="cls-1" cx="247.11" cy="34.33" r="1.82"/>
  <circle class="cls-1" cx="253.45" cy="34.33" r="1.82"/>
  <circle class="cls-1" cx="259.8" cy="34.33" r="1.82"/>
  <circle class="cls-1" cx="212.2" cy="39.43" r="1.82"/>
  <circle class="cls-1" cx="218.55" cy="39.43" r="1.82"/>
  <circle class="cls-1" cx="224.89" cy="39.43" r="1.82"/>
  <circle class="cls-1" cx="231.23" cy="39.43" r="1.82"/>
  <circle class="cls-1" cx="237.58" cy="39.43" r="1.82"/>
  <circle class="cls-1" cx="243.92" cy="39.43" r="1.82"/>
  <circle class="cls-1" cx="250.26" cy="39.43" r="1.82"/>
  <circle class="cls-1" cx="256.61" cy="39.43" r="1.82"/>
  <circle class="cls-1" cx="262.95" cy="39.43" r="1.82"/>
  <circle class="cls-1" cx="209.05" cy="44.58" r="1.82"/>
  <circle class="cls-1" cx="215.39" cy="44.58" r="1.82"/>
  <circle class="cls-1" cx="221.73" cy="44.58" r="1.82"/>
  <circle class="cls-1" cx="228.08" cy="44.58" r="1.82"/>
  <circle class="cls-1" cx="234.42" cy="44.58" r="1.82"/>
  <circle class="cls-1" cx="240.76" cy="44.58" r="1.82"/>
  <circle class="cls-1" cx="247.11" cy="44.58" r="1.82"/>
  <circle class="cls-1" cx="253.45" cy="44.58" r="1.82"/>
  <circle class="cls-1" cx="259.8" cy="44.58" r="1.82"/>
  <circle class="cls-1" cx="212.2" cy="49.68" r="1.82"/>
  <circle class="cls-1" cx="218.55" cy="49.68" r="1.82"/>
  <circle class="cls-1" cx="224.89" cy="49.68" r="1.82"/>
  <circle class="cls-1" cx="231.23" cy="49.68" r="1.82"/>
  <circle class="cls-1" cx="237.58" cy="49.68" r="1.82"/>
  <circle class="cls-1" cx="243.92" cy="49.68" r="1.82"/>
  <circle class="cls-1" cx="250.26" cy="49.68" r="1.82"/>
  <circle class="cls-1" cx="256.61" cy="49.68" r="1.82"/>
  <circle class="cls-1" cx="262.95" cy="49.68" r="1.82"/>
  <circle class="cls-1" cx="209.05" cy="54.79" r="1.82"/>
  <circle class="cls-1" cx="215.39" cy="54.79" r="1.82"/>
  <circle class="cls-1" cx="221.73" cy="54.79" r="1.82"/>
  <circle class="cls-1" cx="228.08" cy="54.79" r="1.82"/>
  <circle class="cls-1" cx="234.42" cy="54.79" r="1.82"/>
  <circle class="cls-1" cx="240.76" cy="54.79" r="1.82"/>
  <circle class="cls-1" cx="247.11" cy="54.79" r="1.82"/>
  <circle class="cls-1" cx="253.45" cy="54.79" r="1.82"/>
  <circle class="cls-1" cx="259.8" cy="54.79" r="1.82"/>
  <circle class="cls-1" cx="212.2" cy="59.89" r="1.82"/>
  <circle class="cls-1" cx="218.55" cy="59.89" r="1.82"/>
  <circle class="cls-1" cx="224.89" cy="59.89" r="1.82"/>
  <circle class="cls-1" cx="231.23" cy="59.89" r="1.82"/>
  <circle class="cls-1" cx="237.58" cy="59.89" r="1.82"/>
  <circle class="cls-1" cx="243.92" cy="59.89" r="1.82"/>
  <circle class="cls-1" cx="250.26" cy="59.89" r="1.82"/>
  <circle class="cls-1" cx="256.61" cy="59.89" r="1.82"/>
  <circle class="cls-1" cx="262.95" cy="59.89" r="1.82"/>
  <circle class="cls-1" cx="209.05" cy="64.71" r="1.82"/>
  <circle class="cls-1" cx="215.39" cy="64.71" r="1.82"/>
  <circle class="cls-1" cx="221.73" cy="64.71" r="1.82"/>
  <circle class="cls-1" cx="228.08" cy="64.71" r="1.82"/>
  <circle class="cls-1" cx="234.42" cy="64.71" r="1.82"/>
  <circle class="cls-1" cx="240.76" cy="64.71" r="1.82"/>
  <circle class="cls-1" cx="247.11" cy="64.71" r="1.82"/>
  <circle class="cls-1" cx="253.45" cy="64.71" r="1.82"/>
  <circle class="cls-1" cx="259.8" cy="64.71" r="1.82"/>
  <circle class="cls-1" cx="212.2" cy="69.82" r="1.82"/>
  <circle class="cls-1" cx="218.55" cy="69.82" r="1.82"/>
  <circle class="cls-1" cx="224.89" cy="69.82" r="1.82"/>
  <circle class="cls-1" cx="231.23" cy="69.82" r="1.82"/>
  <circle class="cls-1" cx="237.58" cy="69.82" r="1.82"/>
  <circle class="cls-1" cx="243.92" cy="69.82" r="1.82"/>
  <circle class="cls-1" cx="250.26" cy="69.82" r="1.82"/>
  <circle class="cls-1" cx="256.61" cy="69.82" r="1.82"/>
  <circle class="cls-1" cx="262.95" cy="69.82" r="1.82"/>
  <circle class="cls-1" cx="209.05" cy="74.92" r="1.82"/>
  <circle class="cls-1" cx="215.39" cy="74.92" r="1.82"/>
  <circle class="cls-1" cx="221.73" cy="74.92" r="1.82"/>
  <circle class="cls-1" cx="228.08" cy="74.92" r="1.82"/>
  <circle class="cls-1" cx="234.42" cy="74.92" r="1.82"/>
  <circle class="cls-1" cx="240.76" cy="74.92" r="1.82"/>
  <circle class="cls-1" cx="247.11" cy="74.92" r="1.82"/>
  <circle class="cls-1" cx="253.45" cy="74.92" r="1.82"/>
  <circle class="cls-1" cx="259.8" cy="74.92" r="1.82"/>
  <circle class="cls-1" cx="212.2" cy="80.03" r="1.82"/>
  <circle class="cls-1" cx="218.55" cy="80.03" r="1.82"/>
  <circle class="cls-1" cx="224.89" cy="80.03" r="1.82"/>
  <circle class="cls-1" cx="231.23" cy="80.03" r="1.82"/>
  <circle class="cls-1" cx="237.58" cy="80.03" r="1.82"/>
  <circle class="cls-1" cx="243.92" cy="80.03" r="1.82"/>
  <circle class="cls-1" cx="250.26" cy="80.03" r="1.82"/>
  <circle class="cls-1" cx="256.61" cy="80.03" r="1.82"/>
  <circle class="cls-1" cx="262.95" cy="80.03" r="1.82"/>
 </g>
 <g class="cls-3" clip-path="url(#clippath-1)">
  <circle class="cls-1" cx="209.05" cy="3.98" r="1.82"/>
  <circle class="cls-1" cx="215.39" cy="3.98" r="1.82"/>
  <circle class="cls-1" cx="221.73" cy="3.98" r="1.82"/>
  <circle class="cls-1" cx="228.08" cy="3.98" r="1.82"/>
  <circle class="cls-1" cx="234.42" cy="3.98" r="1.82"/>
  <circle class="cls-1" cx="240.76" cy="3.98" r="1.82"/>
  <circle class="cls-1" cx="247.11" cy="3.98" r="1.82"/>
  <circle class="cls-1" cx="253.45" cy="3.98" r="1.82"/>
  <circle class="cls-1" cx="259.8" cy="3.98" r="1.82"/>
  <circle class="cls-1" cx="212.2" cy="9.09" r="1.82"/>
  <circle class="cls-1" cx="218.55" cy="9.09" r="1.82"/>
  <circle class="cls-1" cx="224.89" cy="9.09" r="1.82"/>
  <circle class="cls-1" cx="231.23" cy="9.09" r="1.82"/>
  <circle class="cls-1" cx="237.58" cy="9.09" r="1.82"/>
  <circle class="cls-1" cx="243.92" cy="9.09" r="1.82"/>
  <circle class="cls-1" cx="250.26" cy="9.09" r="1.82"/>
  <circle class="cls-1" cx="256.61" cy="9.09" r="1.82"/>
  <circle class="cls-1" cx="262.95" cy="9.09" r="1.82"/>
  <circle class="cls-1" cx="209.05" cy="14.19" r="1.82"/>
  <circle class="cls-1" cx="215.39" cy="14.19" r="1.82"/>
  <circle class="cls-1" cx="221.73" cy="14.19" r="1.82"/>
  <circle class="cls-1" cx="228.08" cy="14.19" r="1.82"/>
  <circle class="cls-1" cx="234.42" cy="14.19" r="1.82"/>
  <circle class="cls-1" cx="240.76" cy="14.19" r="1.82"/>
  <circle class="cls-1" cx="247.11" cy="14.19" r="1.82"/>
  <circle class="cls-1" cx="253.45" cy="14.19" r="1.82"/>
  <circle class="cls-1" cx="259.8" cy="14.19" r="1.82"/>
  <circle class="cls-1" cx="212.2" cy="19.3" r="1.82"/>
  <circle class="cls-1" cx="218.55" cy="19.3" r="1.82"/>
  <circle class="cls-1" cx="224.89" cy="19.3" r="1.82"/>
  <circle class="cls-1" cx="231.23" cy="19.3" r="1.82"/>
  <circle class="cls-1" cx="237.58" cy="19.3" r="1.82"/>
  <circle class="cls-1" cx="243.92" cy="19.3" r="1.82"/>
  <circle class="cls-1" cx="250.26" cy="19.3" r="1.82"/>
  <circle class="cls-1" cx="256.61" cy="19.3" r="1.82"/>
  <circle class="cls-1" cx="262.95" cy="19.3" r="1.82"/>
  <circle class="cls-1" cx="209.05" cy="24.12" r="1.82"/>
  <circle class="cls-1" cx="215.39" cy="24.12" r="1.82"/>
  <circle class="cls-1" cx="221.73" cy="24.12" r="1.82"/>
  <circle class="cls-1" cx="228.08" cy="24.12" r="1.82"/>
  <circle class="cls-1" cx="234.42" cy="24.12" r="1.82"/>
  <circle class="cls-1" cx="240.76" cy="24.12" r="1.82"/>
  <circle class="cls-1" cx="247.11" cy="24.12" r="1.82"/>
  <circle class="cls-1" cx="253.45" cy="24.12" r="1.82"/>
  <circle class="cls-1" cx="259.8" cy="24.12" r="1.82"/>
  <circle class="cls-1" cx="212.2" cy="29.22" r="1.82"/>
  <circle class="cls-1" cx="218.55" cy="29.22" r="1.82"/>
  <circle class="cls-1" cx="224.89" cy="29.22" r="1.82"/>
  <circle class="cls-1" cx="231.23" cy="29.22" r="1.82"/>
  <circle class="cls-1" cx="237.58" cy="29.22" r="1.82"/>
  <circle class="cls-1" cx="243.92" cy="29.22" r="1.82"/>
  <circle class="cls-1" cx="250.26" cy="29.22" r="1.82"/>
  <circle class="cls-1" cx="256.61" cy="29.22" r="1.82"/>
  <circle class="cls-1" cx="262.95" cy="29.22" r="1.82"/>
  <circle class="cls-1" cx="209.05" cy="34.33" r="1.82"/>
  <circle class="cls-1" cx="215.39" cy="34.33" r="1.82"/>
  <circle class="cls-1" cx="221.73" cy="34.33" r="1.82"/>
  <circle class="cls-1" cx="228.08" cy="34.33" r="1.82"/>
  <circle class="cls-1" cx="234.42" cy="34.33" r="1.82"/>
  <circle class="cls-1" cx="240.76" cy="34.33" r="1.82"/>
  <circle class="cls-1" cx="247.11" cy="34.33" r="1.82"/>
  <circle class="cls-1" cx="253.45" cy="34.33" r="1.82"/>
  <circle class="cls-1" cx="259.8" cy="34.33" r="1.82"/>
  <circle class="cls-1" cx="212.2" cy="39.43" r="1.82"/>
  <circle class="cls-1" cx="218.55" cy="39.43" r="1.82"/>
  <circle class="cls-1" cx="224.89" cy="39.43" r="1.82"/>
  <circle class="cls-1" cx="231.23" cy="39.43" r="1.82"/>
  <circle class="cls-1" cx="237.58" cy="39.43" r="1.82"/>
  <circle class="cls-1" cx="243.92" cy="39.43" r="1.82"/>
  <circle class="cls-1" cx="250.26" cy="39.43" r="1.82"/>
  <circle class="cls-1" cx="256.61" cy="39.43" r="1.82"/>
  <circle class="cls-1" cx="262.95" cy="39.43" r="1.82"/>
  <circle class="cls-1" cx="209.05" cy="44.58" r="1.82"/>
  <circle class="cls-1" cx="215.39" cy="44.58" r="1.82"/>
  <circle class="cls-1" cx="221.73" cy="44.58" r="1.82"/>
  <circle class="cls-1" cx="228.08" cy="44.58" r="1.82"/>
  <circle class="cls-1" cx="234.42" cy="44.58" r="1.82"/>
  <circle class="cls-1" cx="240.76" cy="44.58" r="1.82"/>
  <circle class="cls-1" cx="247.11" cy="44.58" r="1.82"/>
  <circle class="cls-1" cx="253.45" cy="44.58" r="1.82"/>
  <circle class="cls-1" cx="259.8" cy="44.58" r="1.82"/>
  <circle class="cls-1" cx="212.2" cy="49.68" r="1.82"/>
  <circle class="cls-1" cx="218.55" cy="49.68" r="1.82"/>
  <circle class="cls-1" cx="224.89" cy="49.68" r="1.82"/>
  <circle class="cls-1" cx="231.23" cy="49.68" r="1.82"/>
  <circle class="cls-1" cx="237.58" cy="49.68" r="1.82"/>
  <circle class="cls-1" cx="243.92" cy="49.68" r="1.82"/>
  <circle class="cls-1" cx="250.26" cy="49.68" r="1.82"/>
  <circle class="cls-1" cx="256.61" cy="49.68" r="1.82"/>
  <circle class="cls-1" cx="262.95" cy="49.68" r="1.82"/>
  <circle class="cls-1" cx="209.05" cy="54.79" r="1.82"/>
  <circle class="cls-1" cx="215.39" cy="54.79" r="1.82"/>
  <circle class="cls-1" cx="221.73" cy="54.79" r="1.82"/>
  <circle class="cls-1" cx="228.08" cy="54.79" r="1.82"/>
  <circle class="cls-1" cx="234.42" cy="54.79" r="1.82"/>
  <circle class="cls-1" cx="240.76" cy="54.79" r="1.82"/>
  <circle class="cls-1" cx="247.11" cy="54.79" r="1.82"/>
  <circle class="cls-1" cx="253.45" cy="54.79" r="1.82"/>
  <circle class="cls-1" cx="259.8" cy="54.79" r="1.82"/>
  <circle class="cls-1" cx="212.2" cy="59.89" r="1.82"/>
  <circle class="cls-1" cx="218.55" cy="59.89" r="1.82"/>
  <circle class="cls-1" cx="224.89" cy="59.89" r="1.82"/>
  <circle class="cls-1" cx="231.23" cy="59.89" r="1.82"/>
  <circle class="cls-1" cx="237.58" cy="59.89" r="1.82"/>
  <circle class="cls-1" cx="243.92" cy="59.89" r="1.82"/>
  <circle class="cls-1" cx="250.26" cy="59.89" r="1.82"/>
  <circle class="cls-1" cx="256.61" cy="59.89" r="1.82"/>
  <circle class="cls-1" cx="262.95" cy="59.89" r="1.82"/>
  <circle class="cls-1" cx="209.05" cy="64.71" r="1.82"/>
  <circle class="cls-1" cx="215.39" cy="64.71" r="1.82"/>
  <circle class="cls-1" cx="221.73" cy="64.71" r="1.82"/>
  <circle class="cls-1" cx="228.08" cy="64.71" r="1.82"/>
  <circle class="cls-1" cx="234.42" cy="64.71" r="1.82"/>
  <circle class="cls-1" cx="240.76" cy="64.71" r="1.82"/>
  <circle class="cls-1" cx="247.11" cy="64.71" r="1.82"/>
  <circle class="cls-1" cx="253.45" cy="64.71" r="1.82"/>
  <circle class="cls-1" cx="259.8" cy="64.71" r="1.82"/>
  <circle class="cls-1" cx="212.2" cy="69.82" r="1.82"/>
  <circle class="cls-1" cx="218.55" cy="69.82" r="1.82"/>
  <circle class="cls-1" cx="224.89" cy="69.82" r="1.82"/>
  <circle class="cls-1" cx="231.23" cy="69.82" r="1.82"/>
  <circle class="cls-1" cx="237.58" cy="69.82" r="1.82"/>
  <circle class="cls-1" cx="243.92" cy="69.82" r="1.82"/>
  <circle class="cls-1" cx="250.26" cy="69.82" r="1.82"/>
  <circle class="cls-1" cx="256.61" cy="69.82" r="1.82"/>
  <circle class="cls-1" cx="262.95" cy="69.82" r="1.82"/>
  <circle class="cls-1" cx="209.05" cy="74.92" r="1.82"/>
  <circle class="cls-1" cx="215.39" cy="74.92" r="1.82"/>
  <circle class="cls-1" cx="221.73" cy="74.92" r="1.82"/>
  <circle class="cls-1" cx="228.08" cy="74.92" r="1.82"/>
  <circle class="cls-1" cx="234.42" cy="74.92" r="1.82"/>
  <circle class="cls-1" cx="240.76" cy="74.92" r="1.82"/>
  <circle class="cls-1" cx="247.11" cy="74.92" r="1.82"/>
  <circle class="cls-1" cx="253.45" cy="74.92" r="1.82"/>
  <circle class="cls-1" cx="259.8" cy="74.92" r="1.82"/>
  <circle class="cls-1" cx="212.2" cy="80.03" r="1.82"/>
  <circle class="cls-1" cx="218.55" cy="80.03" r="1.82"/>
  <circle class="cls-1" cx="224.89" cy="80.03" r="1.82"/>
  <circle class="cls-1" cx="231.23" cy="80.03" r="1.82"/>
  <circle class="cls-1" cx="237.58" cy="80.03" r="1.82"/>
  <circle class="cls-1" cx="243.92" cy="80.03" r="1.82"/>
  <circle class="cls-1" cx="250.26" cy="80.03" r="1.82"/>
  <circle class="cls-1" cx="256.61" cy="80.03" r="1.82"/>
  <circle class="cls-1" cx="262.95" cy="80.03" r="1.82"/>
 </g>
 <g class="cls-5" clip-path="url(#clippath-2)">
  <circle class="cls-1" cx="209.05" cy="3.98" r="1.82"/>
  <circle class="cls-1" cx="215.39" cy="3.98" r="1.82"/>
  <circle class="cls-1" cx="221.73" cy="3.98" r="1.82"/>
  <circle class="cls-1" cx="228.08" cy="3.98" r="1.82"/>
  <circle class="cls-1" cx="234.42" cy="3.98" r="1.82"/>
  <circle class="cls-1" cx="240.76" cy="3.98" r="1.82"/>
  <circle class="cls-1" cx="247.11" cy="3.98" r="1.82"/>
  <circle class="cls-1" cx="253.45" cy="3.98" r="1.82"/>
  <circle class="cls-1" cx="259.8" cy="3.98" r="1.82"/>
  <circle class="cls-1" cx="212.2" cy="9.09" r="1.82"/>
  <circle class="cls-1" cx="218.55" cy="9.09" r="1.82"/>
  <circle class="cls-1" cx="224.89" cy="9.09" r="1.82"/>
  <circle class="cls-1" cx="231.23" cy="9.09" r="1.82"/>
  <circle class="cls-1" cx="237.58" cy="9.09" r="1.82"/>
  <circle class="cls-1" cx="243.92" cy="9.09" r="1.82"/>
  <circle class="cls-1" cx="250.26" cy="9.09" r="1.82"/>
  <circle class="cls-1" cx="256.61" cy="9.09" r="1.82"/>
  <circle class="cls-1" cx="262.95" cy="9.09" r="1.82"/>
  <circle class="cls-1" cx="209.05" cy="14.19" r="1.82"/>
  <circle class="cls-1" cx="215.39" cy="14.19" r="1.82"/>
  <circle class="cls-1" cx="221.73" cy="14.19" r="1.82"/>
  <circle class="cls-1" cx="228.08" cy="14.19" r="1.82"/>
  <circle class="cls-1" cx="234.42" cy="14.19" r="1.82"/>
  <circle class="cls-1" cx="240.76" cy="14.19" r="1.82"/>
  <circle class="cls-1" cx="247.11" cy="14.19" r="1.82"/>
  <circle class="cls-1" cx="253.45" cy="14.19" r="1.82"/>
  <circle class="cls-1" cx="259.8" cy="14.19" r="1.82"/>
  <circle class="cls-1" cx="212.2" cy="19.3" r="1.82"/>
  <circle class="cls-1" cx="218.55" cy="19.3" r="1.82"/>
  <circle class="cls-1" cx="224.89" cy="19.3" r="1.82"/>
  <circle class="cls-1" cx="231.23" cy="19.3" r="1.82"/>
  <circle class="cls-1" cx="237.58" cy="19.3" r="1.82"/>
  <circle class="cls-1" cx="243.92" cy="19.3" r="1.82"/>
  <circle class="cls-1" cx="250.26" cy="19.3" r="1.82"/>
  <circle class="cls-1" cx="256.61" cy="19.3" r="1.82"/>
  <circle class="cls-1" cx="262.95" cy="19.3" r="1.82"/>
  <circle class="cls-1" cx="209.05" cy="24.12" r="1.82"/>
  <circle class="cls-1" cx="215.39" cy="24.12" r="1.82"/>
  <circle class="cls-1" cx="221.73" cy="24.12" r="1.82"/>
  <circle class="cls-1" cx="228.08" cy="24.12" r="1.82"/>
  <circle class="cls-1" cx="234.42" cy="24.12" r="1.82"/>
  <circle class="cls-1" cx="240.76" cy="24.12" r="1.82"/>
  <circle class="cls-1" cx="247.11" cy="24.12" r="1.82"/>
  <circle class="cls-1" cx="253.45" cy="24.12" r="1.82"/>
  <circle class="cls-1" cx="259.8" cy="24.12" r="1.82"/>
  <circle class="cls-1" cx="212.2" cy="29.22" r="1.82"/>
  <circle class="cls-1" cx="218.55" cy="29.22" r="1.82"/>
  <circle class="cls-1" cx="224.89" cy="29.22" r="1.82"/>
  <circle class="cls-1" cx="231.23" cy="29.22" r="1.82"/>
  <circle class="cls-1" cx="237.58" cy="29.22" r="1.82"/>
  <circle class="cls-1" cx="243.92" cy="29.22" r="1.82"/>
  <circle class="cls-1" cx="250.26" cy="29.22" r="1.82"/>
  <circle class="cls-1" cx="256.61" cy="29.22" r="1.82"/>
  <circle class="cls-1" cx="262.95" cy="29.22" r="1.82"/>
  <circle class="cls-1" cx="209.05" cy="34.33" r="1.82"/>
  <circle class="cls-1" cx="215.39" cy="34.33" r="1.82"/>
  <circle class="cls-1" cx="221.73" cy="34.33" r="1.82"/>
  <circle class="cls-1" cx="228.08" cy="34.33" r="1.82"/>
  <circle class="cls-1" cx="234.42" cy="34.33" r="1.82"/>
  <circle class="cls-1" cx="240.76" cy="34.33" r="1.82"/>
  <circle class="cls-1" cx="247.11" cy="34.33" r="1.82"/>
  <circle class="cls-1" cx="253.45" cy="34.33" r="1.82"/>
  <circle class="cls-1" cx="259.8" cy="34.33" r="1.82"/>
  <circle class="cls-1" cx="212.2" cy="39.43" r="1.82"/>
  <circle class="cls-1" cx="218.55" cy="39.43" r="1.82"/>
  <circle class="cls-1" cx="224.89" cy="39.43" r="1.82"/>
  <circle class="cls-1" cx="231.23" cy="39.43" r="1.82"/>
  <circle class="cls-1" cx="237.58" cy="39.43" r="1.82"/>
  <circle class="cls-1" cx="243.92" cy="39.43" r="1.82"/>
  <circle class="cls-1" cx="250.26" cy="39.43" r="1.82"/>
  <circle class="cls-1" cx="256.61" cy="39.43" r="1.82"/>
  <circle class="cls-1" cx="262.95" cy="39.43" r="1.82"/>
  <circle class="cls-1" cx="209.05" cy="44.58" r="1.82"/>
  <circle class="cls-1" cx="215.39" cy="44.58" r="1.82"/>
  <circle class="cls-1" cx="221.73" cy="44.58" r="1.82"/>
  <circle class="cls-1" cx="228.08" cy="44.58" r="1.82"/>
  <circle class="cls-1" cx="234.42" cy="44.58" r="1.82"/>
  <circle class="cls-1" cx="240.76" cy="44.58" r="1.82"/>
  <circle class="cls-1" cx="247.11" cy="44.58" r="1.82"/>
  <circle class="cls-1" cx="253.45" cy="44.58" r="1.82"/>
  <circle class="cls-1" cx="259.8" cy="44.58" r="1.82"/>
  <circle class="cls-1" cx="212.2" cy="49.68" r="1.82"/>
  <circle class="cls-1" cx="218.55" cy="49.68" r="1.82"/>
  <circle class="cls-1" cx="224.89" cy="49.68" r="1.82"/>
  <circle class="cls-1" cx="231.23" cy="49.68" r="1.82"/>
  <circle class="cls-1" cx="237.58" cy="49.68" r="1.82"/>
  <circle class="cls-1" cx="243.92" cy="49.68" r="1.82"/>
  <circle class="cls-1" cx="250.26" cy="49.68" r="1.82"/>
  <circle class="cls-1" cx="256.61" cy="49.68" r="1.82"/>
  <circle class="cls-1" cx="262.95" cy="49.68" r="1.82"/>
  <circle class="cls-1" cx="209.05" cy="54.79" r="1.82"/>
  <circle class="cls-1" cx="215.39" cy="54.79" r="1.82"/>
  <circle class="cls-1" cx="221.73" cy="54.79" r="1.82"/>
  <circle class="cls-1" cx="228.08" cy="54.79" r="1.82"/>
  <circle class="cls-1" cx="234.42" cy="54.79" r="1.82"/>
  <circle class="cls-1" cx="240.76" cy="54.79" r="1.82"/>
  <circle class="cls-1" cx="247.11" cy="54.79" r="1.82"/>
  <circle class="cls-1" cx="253.45" cy="54.79" r="1.82"/>
  <circle class="cls-1" cx="259.8" cy="54.79" r="1.82"/>
  <circle class="cls-1" cx="212.2" cy="59.89" r="1.82"/>
  <circle class="cls-1" cx="218.55" cy="59.89" r="1.82"/>
  <circle class="cls-1" cx="224.89" cy="59.89" r="1.82"/>
  <circle class="cls-1" cx="231.23" cy="59.89" r="1.82"/>
  <circle class="cls-1" cx="237.58" cy="59.89" r="1.82"/>
  <circle class="cls-1" cx="243.92" cy="59.89" r="1.82"/>
  <circle class="cls-1" cx="250.26" cy="59.89" r="1.82"/>
  <circle class="cls-1" cx="256.61" cy="59.89" r="1.82"/>
  <circle class="cls-1" cx="262.95" cy="59.89" r="1.82"/>
  <circle class="cls-1" cx="209.05" cy="64.71" r="1.82"/>
  <circle class="cls-1" cx="215.39" cy="64.71" r="1.82"/>
  <circle class="cls-1" cx="221.73" cy="64.71" r="1.82"/>
  <circle class="cls-1" cx="228.08" cy="64.71" r="1.82"/>
  <circle class="cls-1" cx="234.42" cy="64.71" r="1.82"/>
  <circle class="cls-1" cx="240.76" cy="64.71" r="1.82"/>
  <circle class="cls-1" cx="247.11" cy="64.71" r="1.82"/>
  <circle class="cls-1" cx="253.45" cy="64.71" r="1.82"/>
  <circle class="cls-1" cx="259.8" cy="64.71" r="1.82"/>
  <circle class="cls-1" cx="212.2" cy="69.82" r="1.82"/>
  <circle class="cls-1" cx="218.55" cy="69.82" r="1.82"/>
  <circle class="cls-1" cx="224.89" cy="69.82" r="1.82"/>
  <circle class="cls-1" cx="231.23" cy="69.82" r="1.82"/>
  <circle class="cls-1" cx="237.58" cy="69.82" r="1.82"/>
  <circle class="cls-1" cx="243.92" cy="69.82" r="1.82"/>
  <circle class="cls-1" cx="250.26" cy="69.82" r="1.82"/>
  <circle class="cls-1" cx="256.61" cy="69.82" r="1.82"/>
  <circle class="cls-1" cx="262.95" cy="69.82" r="1.82"/>
  <circle class="cls-1" cx="209.05" cy="74.92" r="1.82"/>
  <circle class="cls-1" cx="215.39" cy="74.92" r="1.82"/>
  <circle class="cls-1" cx="221.73" cy="74.92" r="1.82"/>
  <circle class="cls-1" cx="228.08" cy="74.92" r="1.82"/>
  <circle class="cls-1" cx="234.42" cy="74.92" r="1.82"/>
  <circle class="cls-1" cx="240.76" cy="74.92" r="1.82"/>
  <circle class="cls-1" cx="247.11" cy="74.92" r="1.82"/>
  <circle class="cls-1" cx="253.45" cy="74.92" r="1.82"/>
  <circle class="cls-1" cx="259.8" cy="74.92" r="1.82"/>
  <circle class="cls-1" cx="212.2" cy="80.03" r="1.82"/>
  <circle class="cls-1" cx="218.55" cy="80.03" r="1.82"/>
  <circle class="cls-1" cx="224.89" cy="80.03" r="1.82"/>
  <circle class="cls-1" cx="231.23" cy="80.03" r="1.82"/>
  <circle class="cls-1" cx="237.58" cy="80.03" r="1.82"/>
  <circle class="cls-1" cx="243.92" cy="80.03" r="1.82"/>
  <circle class="cls-1" cx="250.26" cy="80.03" r="1.82"/>
  <circle class="cls-1" cx="256.61" cy="80.03" r="1.82"/>
  <circle class="cls-1" cx="262.95" cy="80.03" r="1.82"/>
 </g>
 <path class="cls-1" d="m238.77 9.71c8.98 0 17.39 4.41 22.48 11.79 4.14 6 5.7 13.25 4.38 20.42-1.31 7.17-5.34 13.4-11.34 17.54-4.58 3.16-9.93 4.83-15.47 4.83-8.98 0-17.39-4.41-22.48-11.79-8.55-12.38-5.43-29.41 6.96-37.96 4.58-3.16 9.93-4.83 15.47-4.83m0-6.04c-6.53 0-13.12 1.91-18.9 5.9-15.15 10.46-18.95 31.21-8.49 46.36 6.47 9.37 16.87 14.4 27.45 14.4 6.53 0 13.12-1.91 18.9-5.9 15.15-10.46 18.95-31.21 8.49-46.36-6.47-9.37-16.87-14.4-27.45-14.4z"/>
 <rect class="cls-1" transform="translate(4.65 163.39) rotate(-34.62)" x="261.48" y="59.15" width="6.04" height="30.16"/>
</svg>
